<svg viewBox="63.899639663688134 385.695748031511 447.29747764581697 168.3779527559" xmlns="http://www.w3.org/2000/svg" version="1.2" style="max-height: 500px" width="447.29747764581697" height="168.3779527559">
	<style>
		tspan { white-space:pre } 
		.s0 { fill: #ffffff } 
		.s1 { fill: #111212 } 
		.s2 { fill: #000000 } 
		.s3 { fill: #d4af37 } 
		.t4 { font-size: 63px;fill: #4169e1;font-weight: 400;font-family: "AbhayaLibre-Regular", "Abhaya Libre" } 
		.t5 { font-size: 22px;fill: #b0b0b0;font-weight: 700;font-family: "AbhayaLibre-Bold", "Abhaya Libre" } 
	</style>
	<g id="Layer 1">
		<path d="m216.53 1001.51c-1.24-1.81-3.6-3.73-3.42-5.39 0.19-1.79 2.74-3.34 4.26-4.99 1.39 1.31 3.88 2.59 3.92 3.95 0.07 2.05-1.56 4.16-2.47 6.24q-1.15 0.1-2.29 0.19z" class="s0" id="&lt;Path&gt;"/>
		<path d="m230.03 1001.02q-3.31-1.14-6.61-2.29c1.28-1.69 2.57-3.37 3.76-4.93-0.36 0-1.72 0-3.07 0q-0.15-0.73-0.31-1.46c1.75-0.29 4.66-1.32 5.03-0.74 1.43 2.26 2.06 5.03 2.98 7.61q-0.89 0.91-1.78 1.81z" class="s0" id="&lt;Path&gt;"/>
		<path d="m239.14 992.75c4.68-2.46 5.06-2.4 7.25 1.26-1.72 0.13-3.91-0.33-5.06 0.56-1.64 1.26 0.12 3.75 2.47 3.48 0.85-0.1 1.69-0.38 2.53-0.58q0.24 0.8 0.48 1.6c-1.87 0.44-4.05 1.72-5.53 1.15-3.61-1.37-2.93-4.59-2.02-7.56z" class="s0" id="&lt;Path&gt;"/>
		<path d="m373.79 993.84c-1.05-0.33-2.38-0.75-3.36-1.06 4.73-0.95 5.34-0.16 4.52 7.43-2.04-0.5-4-0.98-5.96-1.47 1.35-1.38 2.7-2.76 4.8-4.9z" class="s0" id="&lt;Path&gt;"/>
		<path d="m331.06 1002.29c-1.74-2.98-3.48-4.66-3.39-6.23 0.07-1.36 2.24-2.6 3.48-3.89 1.35 1.33 3.67 2.6 3.77 4.02 0.11 1.51-1.88 3.17-3.86 6.1zm0.34-1.73c1.25-2.22 2.51-3.45 2.37-4.5-0.14-1.06-1.68-1.92-2.61-2.87-0.82 1.05-2.2 2.05-2.3 3.17-0.09 1.01 1.22 2.14 2.54 4.2z" class="s0" id="&lt;Compound Path&gt;"/>
		<path d="m239.26 992.66c-5.21 0.17-3.15 5.12-5.96 7.63-0.18-2.67-0.37-5.34-0.64-9.34 2.65 0.75 4.55 1.28 6.47 1.81 0.01-0.01 0.13-0.1 0.13-0.1z" class="s0" id="&lt;Path&gt;"/>
		<path d="m522.91 992c1.02 2.02 1.71 3.42 2.67 5.34 1.15-1.57 2.1-2.88 3.05-4.18q0.35 0.2 0.69 0.4c-1.68 3.49-3.37 6.98-4.73 9.81-0.52-3.54-1.04-7.07-1.68-11.37z" class="s0" id="&lt;Path&gt;"/>
		<path d="m90.75 992.91c2.74 1.87 2.61 4.36 0.52 6.25-0.95 0.85-3.77 0.93-4.73 0.13-1.04-0.86-1.58-3.37-1.13-4.77 0.87-2.7 3.08-3.19 5.51-1.45-0.66-0.01-1.65-0.29-1.93 0.03-1.03 1.2-2.03 2.53-2.55 3.98-0.12 0.33 1.75 1.36 2.71 2.07 0.68-1.44 1.45-2.84 1.98-4.33 0.19-0.53-0.23-1.27-0.38-1.91z" class="s0" id="&lt;Path&gt;"/>
		<path d="m405.29 999q-1.36-2.86-2.73-5.72c-1.23 1.58-2.47 3.15-3.47 4.43 0-1.02 0-2.64 0-4.99 1.86 0 4.61-0.72 5.28 0.15 1.16 1.53 1.03 4.04 1.45 6.13q-0.27 0-0.53 0z" class="s1" id="&lt;Path&gt;"/>
		<path d="m331.4 1000.56c-1.32-2.06-2.63-3.19-2.54-4.2 0.1-1.12 1.48-2.12 2.3-3.17 0.93 0.95 2.47 1.81 2.61 2.87 0.14 1.05-1.12 2.28-2.37 4.5z" class="s2" id="&lt;Path&gt;"/>
		<path d="m90.75 992.91c0.15 0.64 0.57 1.38 0.38 1.91-0.53 1.49-1.3 2.89-1.98 4.33-0.96-0.71-2.83-1.74-2.71-2.07 0.52-1.45 1.52-2.78 2.55-3.98 0.28-0.32 1.27-0.04 1.93-0.03 0 0-0.17-0.16-0.17-0.16z" class="s2" id="&lt;Path&gt;"/>
		<path d="m395.31 997.04c-1.09 0.71-2.38 2.15-3.23 1.93-1-0.26-2.31-2.01-2.23-3.02 0.07-1 1.63-2.51 2.68-2.65 1.3-0.17 2.76 0.85 4.15 1.36q-0.69 1.19-1.37 2.38z" class="s2" id="&lt;Path&gt;"/>
		<g id="&lt;Group&gt;">
			<g id="&lt;Group&gt;">
				<g id="&lt;Group&gt;">
					<path d="m106.44 524.8c-0.45-8.71 3.33-16.47 10.72-22.8 2.68-2.3 5.53-4.43 8.27-6.69 6.57-5.42 10.73-12.18 12.15-20.17 0.51-2.9 0.09-6.02-0.41-8.97-0.29-1.71-0.08-2.97 0.82-4.43 7.3-11.82 16.8-22.16 25.77-32.86 9.82-11.73 19.72-23.42 29.59-35.12 0.43-0.51 0.78-1.13 1.32-1.51 0.41-0.28 1.07-0.26 1.62-0.37 0.09 0.51 0.41 1.11 0.23 1.5-0.51 1.05-1.23 2-1.87 2.99-12.35 19.35-24.63 38.75-37.12 58.02-3.95 6.11-8.56 11.86-12.73 17.85-2.51 3.61-3.99 7.61-4.62 11.91-0.17 1.1-1.09 2.43-2.09 3.06-5.29 3.29-7.81 9.41-6.26 15.12 0.84 3.12 1.64 6.33 1.73 9.52 0.22 7.9-5.53 13.85-14.05 15.03-1.31 0.18-2.64 0.28-3.94 0.54-4.29 0.85-6.06 3.39-4.93 7.3 0.56 1.94 1.47 3.79 2.24 5.68 0.41 1.01 1.13 1.98 1.22 3.01 0.08 0.91-0.5 1.88-0.78 2.82-0.75-0.51-1.76-0.89-2.19-1.57-3.02-4.85-4.65-11.78-4.69-19.86zm5.09-10.62c-0.14 6.76 5.13 10.53 11.01 9.04 5.54-1.41 9.44-7.41 8.35-12.94-0.6-3.02-2.26-5.43-5.49-6.48-3.19-1.03-6.22-0.36-8.71 1.73-3.1 2.62-5.02 5.84-5.16 8.65zm40.33-65.01c-1.85 0.04-3.34 1.5-3.32 3.24 0.02 1.75 1.53 3.16 3.39 3.15 1.99 0 3.49-1.45 3.42-3.32-0.05-1.74-1.63-3.12-3.49-3.07z" class="s3" id="&lt;Compound Path&gt;"/>
					<path d="m161.59 456.26c3.93 6.08 7.57 11.77 11.27 17.43 5.05 7.7 10.14 15.38 15.21 23.07 3.45 5.24 8.27 8.52 15.07 9.05 0.68 0.05 1.3 0.65 1.95 1-0.7 0.33-1.4 0.96-2.09 0.95q-13.59-0.12-27.17-0.42c-0.78-0.01-1.55-0.45-2.33-0.69 0.42-0.6 0.81-1.22 1.28-1.79 1.23-1.44 0.74-2.82-0.12-4.21q-6.35-10.33-12.72-20.65c-2.4-3.88-4.8-7.75-7.3-11.57-0.71-1.09-0.72-1.88 0.08-2.92 2.26-2.91 4.4-5.91 6.87-9.25z" class="s3" id="&lt;Path&gt;"/>
					<path d="m142.19 449.01c-3.15-4.87-6.09-9.42-9.04-13.97q-7.65-11.87-15.33-23.73c-0.6-0.93-1.28-1.81-1.94-2.7-3.51-4.77-8.32-7.44-14.63-7.77-0.69-0.03-1.34-0.63-2.01-0.97 0.69-0.33 1.38-0.93 2.08-0.94 3.04-0.05 6.08 0.14 9.12 0.13 7.8-0.03 15.61-0.16 23.41-0.15 1.11 0 3.2 0.6 3.18 0.85-0.1 1.82-1.82 0.99-2.89 1.09-3.93 0.38-5.1 1.9-3.78 5.37 0.51 1.35 1.22 2.65 1.98 3.9q8.18 13.58 16.46 27.11c0.7 1.14 0.83 1.92-0.1 3.07-2.19 2.69-4.16 5.54-6.51 8.71z" class="s3" id="&lt;Path&gt;"/>
					<path d="m134.81 464c0.19 1.63 0.52 3.1 0.46 4.55-0.02 0.61-0.74 1.34-1.34 1.76-4.98 3.45-10.07 6.75-14.98 10.27-3.1 2.23-4.72 5.49-6.12 8.8-1.27 2.97-3.36 5.76-2.68 9.2 0.18 0.9 0.68 1.73 0.9 2.62 0.23 0.87 0.3 1.78 0.43 2.67-1.04-0.12-2.25 0.04-3.09-0.4-3.19-1.66-6.17-3.59-10.05-3.78-4.24-0.2-7.87-1.81-10.6-4.84-2.96-3.28-3.54-6.97-1.65-10.9 2.98-6.19 9.66-9.57 16.94-8.63 0.77 0.1 1.58 0.11 2.31 0.35 7.57 2.49 13.96-0.17 19.89-4.1 3.26-2.16 6.13-4.81 9.58-7.57zm-36.23 32.62c4.89-0.03 9.35-3.1 11.27-7.76 1.43-3.47 0.35-7.02-2.93-9.18-3.47-2.3-7.25-2.58-11.05-0.85-4.08 1.86-7.28 4.58-7.74 9.03-0.49 4.77 4.46 8.8 10.45 8.76z" class="s3" id="&lt;Compound Path&gt;"/>
				</g>
			</g>
			<text style="transform: matrix(1.172,0,0,1.172,67,465.695)" id="E   SURION">
				<tspan dx="0 6 6 6 6 6 6 6 6 6 6" class="t4" y="0" x="0">E   SURION
</tspan>
			</text>
			<text style="transform: matrix(1.058,0,0,1.058,193,490.975)" id="INSTRUMENTS">
				<tspan dx="0 12 12 12 12 12 12 12 12" class="t5" y="0" x="0">INSTRUMEN</tspan><tspan dx="0" class="t5" y="0">T</tspan><tspan dx="0" class="t5" y="0">S</tspan><tspan dx="0" class="t5" y="0">
</tspan>
			</text>
		</g>
	</g>
</svg>